<?xml version="1.0" encoding="UTF-8"?>
<svg version="1.1" xmlns="http://www.w3.org/2000/svg" width="1044" height="1044">
<path d="M0 0 C1.96759781 -0.01058945 1.96759781 -0.01058945 3.97494507 -0.02139282 C8.18512534 -0.04091313 12.39524746 -0.04608488 16.60546875 -0.046875 C17.32335697 -0.04716957 18.04124519 -0.04746414 18.7808876 -0.04776764 C40.26060108 -0.04919165 61.48235222 0.1744277 82.79296875 3.203125 C84.22651443 3.39879001 85.66011031 3.5940875 87.09375 3.7890625 C177.72889122 16.29618343 262.92187124 51.87537977 335.79296875 107.203125 C336.43314941 107.6887793 337.07333008 108.17443359 337.73291016 108.67480469 C344.44682913 113.79580293 350.96349153 119.123209 357.35546875 124.640625 C357.9081543 125.11765869 358.46083984 125.59469238 359.03027344 126.08618164 C369.70284746 135.40557113 379.92685469 145.17002764 389.92480469 155.20458984 C391.68440355 156.96961044 393.44937272 158.72913633 395.21484375 160.48828125 C400.95502074 166.22483579 406.55119325 172.00133693 411.79296875 178.203125 C412.71783023 179.25196341 413.6448451 180.29890772 414.57421875 181.34375 C422.54566803 190.41656579 429.80237942 199.96770608 436.95117188 209.69677734 C438.69890465 212.07512102 440.45649725 214.44590602 442.21484375 216.81640625 C459.42993726 240.17555566 473.72873184 265.33013345 486.79296875 291.203125 C487.26234863 292.13108887 487.73172852 293.05905273 488.21533203 294.01513672 C520.32197186 357.99225545 539.73798174 432.68514102 539.99609375 504.41015625 C540.0066832 506.37775406 540.0066832 506.37775406 540.01748657 508.38510132 C540.03700688 512.59528159 540.04217863 516.80540371 540.04296875 521.015625 C540.04326332 521.73351322 540.04355789 522.45140144 540.04386139 523.19104385 C540.0452854 544.67075733 539.82166605 565.89250847 536.79296875 587.203125 C536.59730374 588.63667068 536.40200625 590.07026656 536.20703125 591.50390625 C523.69991032 682.13904747 488.12071398 767.33202749 432.79296875 840.203125 C432.30731445 840.84330566 431.82166016 841.48348633 431.32128906 842.14306641 C426.20029082 848.85698538 420.87288475 855.37364778 415.35546875 861.765625 C414.87843506 862.31831055 414.40140137 862.87099609 413.90991211 863.44042969 C404.59052262 874.11300371 394.82606611 884.33701094 384.79150391 894.33496094 C383.02648331 896.0945598 381.26695742 897.85952897 379.5078125 899.625 C373.77125796 905.36517699 367.99475682 910.9613495 361.79296875 916.203125 C360.74413034 917.12798648 359.69718603 918.05500135 358.65234375 918.984375 C349.57952796 926.95582428 340.02838767 934.21253567 330.29931641 941.36132812 C327.92097273 943.1090609 325.55018773 944.8666535 323.1796875 946.625 C299.82053809 963.84009351 274.6659603 978.13888809 248.79296875 991.203125 C247.86500488 991.67250488 246.93704102 992.14188477 245.98095703 992.62548828 C182.0038383 1024.73212811 107.31095273 1044.14813799 35.5859375 1044.40625 C33.61833969 1044.41683945 33.61833969 1044.41683945 31.61099243 1044.42764282 C27.40081216 1044.44716313 23.19069004 1044.45233488 18.98046875 1044.453125 C18.26258053 1044.45341957 17.54469231 1044.45371414 16.8050499 1044.45401764 C-4.67466358 1044.45544165 -25.89641472 1044.2318223 -47.20703125 1041.203125 C-48.64057693 1041.00745999 -50.07417281 1040.8121625 -51.5078125 1040.6171875 C-142.14295372 1028.11006657 -227.33593374 992.53087023 -300.20703125 937.203125 C-300.84721191 936.7174707 -301.48739258 936.23181641 -302.14697266 935.73144531 C-308.86089163 930.61044707 -315.37755403 925.283041 -321.76953125 919.765625 C-322.3222168 919.28859131 -322.87490234 918.81155762 -323.44433594 918.32006836 C-334.11690996 909.00067887 -344.34091719 899.23622236 -354.33886719 889.20166016 C-356.09846605 887.43663956 -357.86343522 885.67711367 -359.62890625 883.91796875 C-365.36908324 878.18141421 -370.96525575 872.40491307 -376.20703125 866.203125 C-377.13189273 865.15428659 -378.0589076 864.10734228 -378.98828125 863.0625 C-386.95973053 853.98968421 -394.21644192 844.43854392 -401.36523438 834.70947266 C-403.11296715 832.33112898 -404.87055975 829.96034398 -406.62890625 827.58984375 C-423.84399976 804.23069434 -438.14279434 779.07611655 -451.20703125 753.203125 C-451.91110107 751.8111792 -451.91110107 751.8111792 -452.62939453 750.39111328 C-484.73603436 686.41399455 -504.15204424 611.72110898 -504.41015625 539.99609375 C-504.41721588 538.68436188 -504.42427551 537.37263 -504.43154907 536.02114868 C-504.45106938 531.81096841 -504.45624113 527.60084629 -504.45703125 523.390625 C-504.45732582 522.67273678 -504.45762039 521.95484856 -504.45792389 521.21520615 C-504.4593479 499.73549267 -504.23572855 478.51374153 -501.20703125 457.203125 C-501.01136624 455.76957932 -500.81606875 454.33598344 -500.62109375 452.90234375 C-488.11397282 362.26720253 -452.53477648 277.07422251 -397.20703125 204.203125 C-396.72137695 203.56294434 -396.23572266 202.92276367 -395.73535156 202.26318359 C-390.61435332 195.54926462 -385.28694725 189.03260222 -379.76953125 182.640625 C-379.29249756 182.08793945 -378.81546387 181.53525391 -378.32397461 180.96582031 C-369.00458512 170.29324629 -359.24012861 160.06923906 -349.20556641 150.07128906 C-347.44054581 148.3116902 -345.68101992 146.54672103 -343.921875 144.78125 C-338.18532046 139.04107301 -332.40881932 133.4449005 -326.20703125 128.203125 C-325.15819284 127.27826352 -324.11124853 126.35124865 -323.06640625 125.421875 C-313.99359046 117.45042572 -304.44245017 110.19371433 -294.71337891 103.04492188 C-292.33503523 101.2971891 -289.96425023 99.5395965 -287.59375 97.78125 C-264.23460059 80.56615649 -239.0800228 66.26736191 -213.20703125 53.203125 C-211.81508545 52.49905518 -211.81508545 52.49905518 -210.39501953 51.78076172 C-146.4179008 19.67412189 -71.72501523 0.25811201 0 0 Z " fill="#050816" transform="translate(504.20703125,-0.203125)"/>
<path d="M0 0 C0.85698486 -0.0066568 1.71396973 -0.0133136 2.59692383 -0.02017212 C4.40199666 -0.03023354 6.20710619 -0.03499117 8.01220703 -0.03466797 C10.71582674 -0.03900765 13.41776537 -0.07530346 16.12109375 -0.11328125 C41.76363848 -0.2819011 61.51350041 7.51960611 79.86328125 25.39453125 C85.31721324 31.21125251 91.75 39.19954397 91.75 47.3359375 C92.41 47.3359375 93.07 47.3359375 93.75 47.3359375 C94.05292969 48.27953125 94.35585938 49.223125 94.66796875 50.1953125 C97.01677561 57.42350289 99.56333265 64.45294525 102.56640625 71.44140625 C103.765774 74.37451353 104.77629564 77.32097339 105.75 80.3359375 C107.41294088 85.4789845 109.40463169 90.41117168 111.51953125 95.3828125 C113.88963215 101.07105466 116.06549636 106.8260908 117.6875 112.7734375 C118.96500337 117.05683116 120.70814461 121.05158279 122.46875 125.15625 C123.69810794 128.2071566 124.67660732 131.25075489 125.625 134.3984375 C127.69477502 140.75738485 130.83931281 145.94102362 134.75 151.3359375 C135.26175781 152.05652344 135.77351563 152.77710938 136.30078125 153.51953125 C144.06132284 163.39833482 156.42451058 169.59853171 168.75 171.3359375 C176.06710339 172.00394782 183.40585975 172.22021891 190.75 172.3359375 C190.71777344 171.33046875 190.68554688 170.325 190.65234375 169.2890625 C191.02718652 154.1154272 198.16339335 141.97434747 208.953125 131.69140625 C222.75401208 120.06859213 238.83639067 114.80464043 256.75 116.3359375 C274.47286434 119.31366572 289.16961558 128.1162614 299.875 142.5859375 C302.3735156 146.14841428 303.23797858 149.01497628 303.75 153.3359375 C304.41 153.3359375 305.07 153.3359375 305.75 153.3359375 C308.61433369 161.07018406 309.23986634 168.12870355 309.1875 176.3359375 C309.20748047 177.44710937 309.22746094 178.55828125 309.24804688 179.703125 C309.24368577 187.11700776 307.94580897 192.67599879 304.75 199.3359375 C304.24662958 200.58458405 303.74634325 201.834481 303.25 203.0859375 C296.58900272 217.51809827 284.29128462 227.71284897 269.66015625 233.3359375 C255.76144644 238.11187 239.21328563 238.57836209 225.75 232.3359375 C224.8425 231.93503906 223.935 231.53414062 223 231.12109375 C209.40714563 224.45982279 201.34305454 214.60148097 194.75 201.3359375 C194.18410156 200.24925781 193.61820313 199.16257812 193.03515625 198.04296875 C191.75 195.3359375 191.75 195.3359375 191.75 193.3359375 C191.18716309 193.34641113 190.62432617 193.35688477 190.04443359 193.36767578 C164.83252827 193.77357358 143.1151628 190.5144709 123.91357422 172.60180664 C119.46872144 168.27299009 116.02618679 163.57607497 112.75 158.3359375 C112.29109375 157.68238281 111.8321875 157.02882813 111.359375 156.35546875 C107.24079363 150.33886644 103.75 142.70770034 103.75 135.3359375 C103.09 135.3359375 102.43 135.3359375 101.75 135.3359375 C101.53085937 134.583125 101.31171875 133.8303125 101.0859375 133.0546875 C98.78141103 125.33546062 96.12193235 117.83199261 93.25390625 110.30859375 C91.86754643 106.66884908 90.5491568 103.00783084 89.25 99.3359375 C87.00429374 93.0077812 84.66590374 86.71870908 82.29296875 80.4375 C81.23893337 77.64594794 80.20158687 74.8489206 79.17578125 72.046875 C76.68960732 65.27990786 74.11796991 58.72346664 70.75 52.3359375 C70.358125 51.2221875 69.96625 50.1084375 69.5625 48.9609375 C65.30261308 38.92959087 55.01600511 31.05568042 45.28515625 26.83203125 C34.40153726 22.7550299 24.3293139 22.10384533 12.81640625 22.04077148 C11.36611131 22.02929968 9.91585698 22.00892428 8.46582031 21.97924805 C-9.89468515 21.6052687 -24.38054124 26.17282847 -37.99609375 39 C-44.26161447 45.49355527 -47.18435902 52.3003107 -50.0390625 60.80078125 C-51.13714488 64.00647335 -52.35685321 67.09620695 -53.6875 70.2109375 C-57.83783237 80.00780356 -61.51878524 89.97027238 -64.8125 100.0859375 C-66.62928734 105.62917044 -68.70980444 110.96807403 -71.00390625 116.328125 C-73.88948511 123.29331536 -76.31355845 130.45154744 -78.65234375 137.6171875 C-81.53675884 146.33330568 -84.6993358 153.90851184 -90.25 161.3359375 C-90.9409375 162.27050781 -91.631875 163.20507812 -92.34375 164.16796875 C-104.1124555 179.31396121 -121.33606937 190.28676328 -140.5078125 193.06640625 C-149.39973667 193.70684755 -158.34163703 193.48312703 -167.25 193.3359375 C-167.38801025 194.10075439 -167.52602051 194.86557129 -167.66821289 195.65356445 C-170.20846652 207.36559407 -180.71354453 219.50703512 -190.25 226.3359375 C-205.51457607 235.51979526 -220.72876578 238.43086048 -238.28125 235.08203125 C-253.33809046 231.2980095 -266.65449383 222.03108474 -274.875 208.8359375 C-283.56718014 192.96240763 -286.18047288 176.4327744 -281.6875 158.7734375 C-276.28547364 142.90498506 -265.83584968 130.62662012 -250.91796875 122.99609375 C-237.74094573 116.77214302 -222.26622742 114.81534538 -208.25 119.3359375 C-207.26773438 119.63113281 -206.28546875 119.92632813 -205.2734375 120.23046875 C-189.76142348 125.46901286 -177.01926316 136.82012865 -169.50390625 151.359375 C-166.70102541 158.0129426 -165.0096495 165.098717 -165.25 172.3359375 C-146.26604318 171.89649406 -128.07804512 169.68977405 -113.70703125 156.04296875 C-106.49740276 148.09976916 -101.84193672 139.64586001 -99.06640625 129.265625 C-98.35505003 126.71291129 -97.51813765 124.52727455 -96.375 122.1484375 C-94.26462379 117.67011948 -92.77729861 113.03615858 -91.25 108.3359375 C-89.52147291 103.02138563 -87.71734008 97.91735167 -85.3125 92.8671875 C-83.40645606 88.32631811 -81.98850046 83.60881378 -80.4675293 78.92773438 C-78.93356893 74.25225046 -77.22828938 69.78745344 -75.11328125 65.33984375 C-74.11588397 63.02461838 -73.43415358 60.69907293 -72.75 58.2734375 C-71.62350499 54.31233819 -70.13918633 50.8674587 -68.1953125 47.24609375 C-67.06865436 45.09980349 -67.06865436 45.09980349 -66.125 41.6484375 C-63.7544859 35.05788732 -58.67412901 29.65583297 -54.25 24.3359375 C-53.69441406 23.66304687 -53.13882813 22.99015625 -52.56640625 22.296875 C-39.37596027 7.83877578 -19.29377507 0.05387552 0 0 Z " fill="#391962" transform="translate(509.25,652.6640625)"/>
<path d="M0 0 C25.41 0 50.82 0 77 0 C77.99 4.29 78.98 8.58 80 13 C80.35191406 14.18464844 80.70382812 15.36929687 81.06640625 16.58984375 C82.41579335 21.51877656 83.14355077 26.51851765 83.9375 31.5625 C85.21185258 39.44599488 86.60932329 47.24747481 88.34375 55.04296875 C89.80347736 61.6204307 90.98427971 68.08528901 91.4375 74.8125 C91.85347431 86.16334058 91.85347431 86.16334058 96 96 C96.63460909 99.68149731 97.18410762 103.36752258 97.71875 107.06445312 C98.43539922 111.84084395 99.32238513 116.5304224 100.38671875 121.2421875 C101.72556486 127.36031605 102.75103659 133.49114942 103.68359375 139.68359375 C103.82702209 140.63507797 103.97045044 141.58656219 104.1182251 142.56687927 C104.70940066 146.51410577 105.29488769 150.46211507 105.87231445 154.41137695 C107.43913133 165.08140867 109.17062756 175.47466139 112.13208008 185.85083008 C113.29615592 190.07457532 114.02020696 194.29136815 114.625 198.625 C114.74415771 199.41986816 114.86331543 200.21473633 114.98608398 201.03369141 C115.52810325 204.66057248 116.04149868 208.29136136 116.55859375 211.921875 C116.80802734 213.63117188 116.80802734 213.63117188 117.0625 215.375 C117.19785156 216.35210938 117.33320312 217.32921875 117.47265625 218.3359375 C117.91294318 221.01247479 117.91294318 221.01247479 119.00390625 223.4375 C120.20291405 226.52200634 120.51759472 229.33541267 120.875 232.625 C121.69271113 239.62676193 123.07053306 246.43998947 124.67919922 253.30126953 C124.8495166 254.05649902 125.01983398 254.81172852 125.1953125 255.58984375 C125.35016113 256.24847412 125.50500977 256.90710449 125.66455078 257.58569336 C126.14253832 261.02588167 126 264.52676409 126 268 C110.16 268 94.32 268 78 268 C75.36 254.14 72.72 240.28 70 226 C37.825 225.505 37.825 225.505 5 225 C4.34 230.28 3.68 235.56 3 241 C2.36004477 244.36157616 1.70401881 247.67161793 0.9375 251 C0.58917216 252.54092984 0.24408196 254.08259537 -0.09765625 255.625 C-0.24726807 256.27726562 -0.39687988 256.92953125 -0.55102539 257.6015625 C-1.19495326 261.0414469 -1.56592366 264.52738924 -2 268 C-18.17 268 -34.34 268 -51 268 C-51 262.80153877 -50.76879887 258.95302274 -49.78515625 253.984375 C-49.65279068 253.30695251 -49.52042511 252.62953003 -49.38404846 251.93157959 C-48.92991037 249.61956289 -48.4653467 247.30978552 -48 245 C-47.64674134 243.22725962 -47.29372383 241.45447117 -46.94091797 239.68164062 C-45.58144655 232.86981082 -44.20815939 226.06077568 -42.83129883 219.25244141 C-40.9106293 209.74788881 -38.99443256 200.26226152 -37.46801758 190.68505859 C-36.5599796 185.4755637 -35.31574627 180.3381963 -34.125 175.1875 C-31.07969707 161.7634403 -28.58479468 148.28301892 -26.48828125 134.6796875 C-25.493069 128.27015539 -24.09830538 122.00072841 -22.625 115.6875 C-20.3814129 106.05472544 -18.6006124 96.39263949 -16.96484375 86.640625 C-16.06659876 81.30404664 -15.04501359 75.99694164 -14 70.6875 C-12.20122354 61.51903058 -10.77524496 52.30839886 -9.48242188 43.05541992 C-9.2571582 41.50624878 -9.2571582 41.50624878 -9.02734375 39.92578125 C-8.90093506 39.02255127 -8.77452637 38.11932129 -8.64428711 37.1887207 C-7.74098575 32.71808065 -6.31058913 28.36863044 -5 24 C-3.35 16.08 -1.7 8.16 0 0 Z " fill="#6D46BF" transform="translate(485,385)"/>
<path d="M0 0 C4.92689249 3.36092366 9.05449259 7.16561856 13 11.625 C13.79857422 12.4603125 13.79857422 12.4603125 14.61328125 13.3125 C20.15931089 19.73271002 25 31.11801642 25 39.625 C25.81969505 39.62085193 25.81969505 39.62085193 26.65594959 39.61662006 C39.99540612 39.5501659 53.33483336 39.5008173 66.67442036 39.46956348 C73.12553916 39.45393885 79.57653807 39.43275895 86.02758789 39.39868164 C92.25863504 39.36597421 98.48956719 39.34812292 104.72069359 39.34036827 C107.09241736 39.33484519 109.46413518 39.32406014 111.83580971 39.30780983 C115.16972858 39.28588453 118.50317829 39.28303941 121.8371582 39.28442383 C123.29265579 39.26824509 123.29265579 39.26824509 124.77755737 39.2517395 C141.2593097 39.32531274 155.84532644 46.3943108 167.375 57.86328125 C179.59908862 70.72404115 184.14709685 83.08360498 185.03515625 100.59570312 C185.48801967 107.40147132 186.74768354 112.62731017 190 118.625 C190.52980469 119.63949219 191.05960937 120.65398437 191.60546875 121.69921875 C195.48742016 128.11162737 199.29185495 132.23063832 206 135.625 C206.62181656 135.94910355 207.24363312 136.27320709 207.8842926 136.60713196 C213.60139552 139.39688451 218.30965386 140.22500376 224.62890625 140.234375 C225.50401352 140.25091125 226.37912079 140.26744751 227.28074646 140.28448486 C230.04140506 140.33258249 232.80151449 140.35424978 235.5625 140.375 C237.44859478 140.40319178 239.33466439 140.43312364 241.22070312 140.46484375 C245.81375677 140.53833055 250.40651237 140.5881377 255 140.625 C255 142.935 255 145.245 255 147.625 C255.66 147.625 256.32 147.625 257 147.625 C257.33 145.645 257.66 143.665 258 141.625 C259.2778758 145.25140429 258.70171711 147.6987594 257.75 151.375 C256.43344507 156.70795753 255.30467908 162.0372455 254.3125 167.4375 C254.18133789 168.14938477 254.05017578 168.86126953 253.91503906 169.59472656 C253.60777739 171.27107377 253.30354358 172.94797555 253 174.625 C251.90348177 171.21360997 252.05784527 168.41844419 252.4375 164.875 C252.53933594 163.89015625 252.64117187 162.9053125 252.74609375 161.890625 C252.82988281 161.14296875 252.91367187 160.3953125 253 159.625 C252.67 160.285 252.34 160.945 252 161.625 C246.78966314 161.69985565 241.5796479 161.75393126 236.36889648 161.78979492 C234.60093728 161.80476535 232.83301445 161.82514903 231.06518555 161.85131836 C212.14922703 162.12406755 212.14922703 162.12406755 203 158.625 C201.91847656 158.2228125 200.83695312 157.820625 199.72265625 157.40625 C189.15830897 152.31798876 178.89876013 143.94783023 173 133.625 C173 132.965 173 132.305 173 131.625 C172.34 131.625 171.68 131.625 171 131.625 C166.46955848 121.52314172 164.13365722 111.98976984 163.02612305 100.96069336 C161.81881107 89.24700235 159.67453828 80.0275643 151 71.625 C141.28412462 63.92480623 131.46941142 61.17405126 119.22607422 61.19262695 C118.20048904 61.1824353 117.17490387 61.17224365 116.11824036 61.16174316 C112.76366581 61.13180156 109.40937768 61.12237601 106.0546875 61.11328125 C103.71484441 61.09642062 101.3750103 61.07826853 99.03518677 61.05888367 C92.90326748 61.0115281 86.77138463 60.9816253 80.63934326 60.95544434 C74.37146819 60.92556586 68.10371844 60.8790606 61.8359375 60.83398438 C49.55735742 60.74811557 37.27875144 60.68069733 25 60.625 C24.86518723 61.24613678 24.73037445 61.86727356 24.59147644 62.50723267 C24.41328873 63.32033905 24.23510101 64.13344543 24.05151367 64.97119141 C23.78741951 66.18133408 23.78741951 66.18133408 23.51799011 67.41592407 C20.14176564 81.81453137 9.88854993 94.00956729 -2.25 101.875 C-16.56896941 110.33998888 -32.31539641 112.99813379 -48.5625 109.0625 C-64.90013303 104.2154429 -78.02908936 94.66566384 -86.58984375 79.87890625 C-94.07033431 65.81412082 -96.3351292 50.19809577 -92.9375 34.53125 C-87.90819934 18.94041797 -78.46871767 5.7509885 -64 -2.375 C-42.27196149 -12.76769521 -20.81753313 -12.3541977 0 0 Z " fill="#391962" transform="translate(212,317.375)"/>
<path d="M0 0 C0.76570313 0.57363281 1.53140625 1.14726562 2.3203125 1.73828125 C3.28324219 2.42857422 3.28324219 2.42857422 4.265625 3.1328125 C14.97228977 11.46288576 22.9798822 25.74654493 25.07421875 39.08984375 C26.79941493 57.6562407 22.54385903 73.59323004 11.1953125 88.55078125 C1.9455942 99.21386907 -11.92162851 107.84845784 -26.22827148 108.93115234 C-46.46354473 109.53551837 -61.90775265 107.00902458 -77.3046875 92.67578125 C-85.76562328 83.77353767 -93.79251769 72.36618468 -93.6796875 59.73828125 C-107.31055613 59.77640263 -120.94115147 59.83585867 -134.571805 59.92218399 C-140.90180273 59.96161048 -147.23166233 59.99382284 -153.56176758 60.00927734 C-159.67627654 60.02447542 -165.79040567 60.05897768 -171.9047451 60.10659027 C-174.23175941 60.12137145 -176.55882795 60.12932038 -178.88588905 60.1301651 C-182.15781273 60.13254626 -185.42869644 60.15971964 -188.70043945 60.19238281 C-189.6520697 60.18735245 -190.60369995 60.18232208 -191.58416748 60.17713928 C-202.88623863 60.35050183 -213.09913647 64.63740592 -221.39453125 72.328125 C-227.67016452 79.11475131 -231.64691832 87.58685435 -231.96923828 96.79199219 C-232.67594211 116.50700984 -238.65627864 132.70070518 -253.14648438 146.37841797 C-264.25981569 156.23530578 -277.67866324 160.89491187 -292.36328125 160.8359375 C-293.06365005 160.83452255 -293.76401886 160.8331076 -294.48561096 160.83164978 C-296.69618216 160.82610602 -298.90664754 160.81356451 -301.1171875 160.80078125 C-302.62695165 160.79575896 -304.13671741 160.79119734 -305.64648438 160.78710938 C-309.32425243 160.77615512 -313.00195962 160.75893015 -316.6796875 160.73828125 C-317.0096875 159.41828125 -317.3396875 158.09828125 -317.6796875 156.73828125 C-318.3396875 156.73828125 -318.9996875 156.73828125 -319.6796875 156.73828125 C-319.6796875 158.38828125 -319.6796875 160.03828125 -319.6796875 161.73828125 C-320.0096875 161.73828125 -320.3396875 161.73828125 -320.6796875 161.73828125 C-321.21149925 159.4908508 -321.72975876 157.24021023 -322.2421875 154.98828125 C-322.53222656 153.7353125 -322.82226562 152.48234375 -323.12109375 151.19140625 C-323.61413033 148.14354377 -323.75635629 146.56186297 -322.6796875 143.73828125 C-322.0196875 145.71828125 -321.3596875 147.69828125 -320.6796875 149.73828125 C-320.3496875 146.76828125 -320.0196875 143.79828125 -319.6796875 140.73828125 C-318.84832275 140.71846191 -318.01695801 140.69864258 -317.16040039 140.67822266 C-314.03467738 140.59947593 -310.90929837 140.51276551 -307.78393555 140.42089844 C-305.78255021 140.36442027 -303.78091892 140.31688357 -301.77929688 140.26953125 C-288.45558094 139.86679928 -275.84238177 137.97937035 -265.7421875 128.36328125 C-257.44280837 119.15521097 -254.58563061 109.98849611 -254.02026367 97.76831055 C-253.65416066 90.05471089 -252.70705645 82.86969847 -249.6796875 75.73828125 C-249.0196875 75.73828125 -248.3596875 75.73828125 -247.6796875 75.73828125 C-247.3703125 74.25328125 -247.3703125 74.25328125 -247.0546875 72.73828125 C-245.69798684 67.95106607 -242.78921637 64.53220404 -239.6796875 60.73828125 C-238.76123047 59.51818359 -238.76123047 59.51818359 -237.82421875 58.2734375 C-228.56168868 47.32374348 -214.64024505 40.83881246 -200.6796875 38.73828125 C-197.02305659 38.48716391 -193.38624578 38.48391615 -189.72216797 38.51123047 C-188.67707565 38.51093842 -187.63198334 38.51064636 -186.55522156 38.51034546 C-183.13568523 38.51172751 -179.71637278 38.52723546 -176.296875 38.54296875 C-173.91220214 38.54670288 -171.52752773 38.54954796 -169.14285278 38.55154419 C-162.8924937 38.55914914 -156.64222882 38.57877052 -150.39190674 38.60095215 C-144.00347162 38.62147838 -137.61502115 38.63056036 -131.2265625 38.640625 C-118.7108963 38.6620195 -106.19529976 38.69611732 -93.6796875 38.73828125 C-93.5470047 38.05157349 -93.4143219 37.36486572 -93.27761841 36.65734863 C-93.10108734 35.75657593 -92.92455627 34.85580322 -92.74267578 33.92773438 C-92.56874298 33.03477661 -92.39481018 32.14181885 -92.21560669 31.22180176 C-89.34182349 17.90430976 -79.36967229 6.66766557 -68.6796875 -1.26171875 C-47.49677322 -14.31059054 -20.60379638 -14.36115359 0 0 Z " fill="#391962" transform="translate(899.6796875,318.26171875)"/>
<path d="M0 0 C17.5488457 -0.54274781 31.49143222 4.19286779 45 15.6875 C51.94872426 22.4558757 60.74651024 33.28252126 61.125 43.3125 C61.08375 44.199375 61.0425 45.08625 61 46 C61.66 46 62.32 46 63 46 C63.9311586 50.00473903 64.15922683 53.83415834 64.3125 57.9375 C65.11227158 71.70341971 68.67829195 82.2798612 78.9453125 91.8046875 C87.09384117 98.43567642 95.72119586 100.59924352 106.04931641 100.54589844 C107.63158524 100.56140495 107.63158524 100.56140495 109.24581909 100.57722473 C112.69789244 100.60648784 116.14937526 100.60814845 119.6015625 100.609375 C122.00866808 100.62436772 124.41576342 100.64109715 126.82284546 100.65948486 C133.13234956 100.7030475 139.4417149 100.72313306 145.75134277 100.73822021 C152.20019701 100.75783117 158.64890227 100.79979675 165.09765625 100.83984375 C177.73172021 100.91502589 190.36576111 100.96615021 203 101 C203.20283096 100.07652016 203.20283096 100.07652016 203.40975952 99.13438416 C203.58826447 98.32554276 203.76676941 97.51670135 203.95068359 96.68334961 C204.12715424 95.88207138 204.30362488 95.08079315 204.48544312 94.25523376 C206.63116849 84.85080742 210.43259226 78.04794977 217 71 C217.71929688 70.2265625 218.43859375 69.453125 219.1796875 68.65625 C231.06752794 56.96854155 245.95576063 51.58897072 262.37548828 51.70678711 C279.22833795 52.02821854 293.56922044 58.47264108 305.4453125 70.31640625 C317.28680799 82.75540839 322.60349153 97.27709228 322.234375 114.3671875 C321.29420819 128.93977312 315.28883931 145.05138819 304 155 C290.93205999 165.66177963 277.55545055 171.61908222 260.5625 171.4375 C259.55405029 171.42920166 258.54560059 171.42090332 257.5065918 171.41235352 C250.05833 171.24327996 243.72825031 170.37416732 237 167 C236.01257813 166.525625 235.02515625 166.05125 234.0078125 165.5625 C218.82460111 157.52660186 208.45042457 144.17198894 203.375 127.8671875 C203 126 203 126 203 122 C202.44507276 122.00368717 201.89014551 122.00737434 201.31840229 122.01117325 C187.76129435 122.09984692 174.20423782 122.16560938 160.64690113 122.20724869 C154.09041805 122.22806647 147.53414528 122.25627802 140.9777832 122.30175781 C134.64297626 122.34542254 128.30837081 122.36918074 121.97342491 122.37950897 C119.56426513 122.38686338 117.15511557 122.40122424 114.74604225 122.42292023 C93.37915026 122.60758498 76.69697674 120.03790999 60.46484375 104.7265625 C57.49947834 101.44633262 54.93254283 98.02111796 52.4375 94.375 C52.00743652 93.75367188 51.57737305 93.13234375 51.13427734 92.4921875 C48.39748742 88.28961786 47.36672337 85.00545234 47 80 C46.34 80 45.68 80 45 80 C42.86142592 74.63138041 42.48556214 69.50791717 42.0625 63.8125 C40.89443888 50.50049294 39.28032558 40.69623622 29.1171875 31.25 C21.45920458 25.04920411 12.58403201 22.54975837 3 21 C2.49432271 18.43850372 1.99529868 15.87600535 1.5 13.3125 C1.35691406 12.59126953 1.21382812 11.87003906 1.06640625 11.12695312 C0.34428113 7.36158641 -0.1824976 3.85526187 0 0 Z " fill="#391962" transform="translate(603,585)"/>
<path d="M0 0 C1.2380014 3.57644848 0.74926071 6.33694766 0 10 C-0.33 10 -0.66 10 -1 10 C-1.33 7.69 -1.66 5.38 -2 3 C-1.34 3 -0.68 3 0 3 C0 2.01 0 1.02 0 0 Z M-10.1875 -1.0625 C-9.49462891 -1.05798828 -8.80175781 -1.05347656 -8.08789062 -1.04882812 C-6.39188932 -1.03713156 -4.69593297 -1.01919924 -3 -1 C-2.375 1.8125 -2.375 1.8125 -2 5 C-2.66 5.99 -3.32 6.98 -4 8 C-4.44429438 10.04869074 -4.81294195 12.11454293 -5.125 14.1875 C-5.29257812 15.27417969 -5.46015625 16.36085938 -5.6328125 17.48046875 C-5.75398438 18.31191406 -5.87515625 19.14335938 -6 20 C-6.87140625 20.07476563 -7.7428125 20.14953125 -8.640625 20.2265625 C-20.22304012 21.50514079 -31.14903826 25.08631255 -38.9140625 34.26171875 C-44.94246319 42.80883479 -47.03203523 49.22905835 -47.375 59.5625 C-47.87327087 73.36660776 -51.81553613 84.75557892 -60 96 C-60.44859375 96.70382812 -60.8971875 97.40765625 -61.359375 98.1328125 C-69.53268937 110.39278406 -83.79173547 117.2585495 -97.79159546 120.3734436 C-107.1874972 121.99019289 -116.95812536 121.48603629 -126.45703125 121.51171875 C-128.81500673 121.52858848 -131.17297334 121.54674176 -133.53092957 121.56611633 C-139.69732898 121.61337323 -145.86369243 121.64333942 -152.0302124 121.66955566 C-158.3385732 121.69948447 -164.64681035 121.74597217 -170.95507812 121.79101562 C-183.30332042 121.87677188 -195.65158834 121.94423962 -208 122 C-208.31243652 123.26328125 -208.62487305 124.5265625 -208.94677734 125.828125 C-209.71554106 128.93648369 -210.58342562 131.96996545 -211.625 135 C-211.88539063 135.763125 -212.14578125 136.52625 -212.4140625 137.3125 C-212.60742188 137.869375 -212.80078125 138.42625 -213 139 C-213.66 139 -214.32 139 -215 139 C-215.268125 139.73605469 -215.53625 140.47210937 -215.8125 141.23046875 C-221.31682963 154.0678691 -233.76902255 161.56785443 -246 167 C-246.79792969 167.36351562 -247.59585938 167.72703125 -248.41796875 168.1015625 C-262.47138078 172.99155458 -279.92026119 170.78554699 -293.0625 164.4375 C-307.04775388 157.3114541 -316.68983425 146.27468206 -323 132 C-323.54140625 130.92685547 -323.54140625 130.92685547 -324.09375 129.83203125 C-325.45336585 125.58323173 -325.51933569 121.3752345 -325.6875 116.9375 C-325.72657471 116.000271 -325.76564941 115.06304199 -325.8059082 114.09741211 C-326.43986303 96.25567127 -326.43986303 96.25567127 -323 88 C-322.34 88 -321.68 88 -321 88 C-320.90976562 87.12214844 -320.81953125 86.24429688 -320.7265625 85.33984375 C-318.47630481 74.99591728 -308.17374192 65.93635942 -299.625 60.3125 C-284.33228908 51.02019881 -267.7364775 48.38796183 -250.25 52.5625 C-235.41550005 57.02376918 -222.27586646 66.80275161 -214 80 C-212.80146638 82.5473536 -211.76782594 85.08678776 -210.82421875 87.73828125 C-210.07401832 89.99905727 -210.07401832 89.99905727 -208.89453125 91.91796875 C-207.71324688 94.66742101 -207.94225159 97.03566586 -208 100 C-194.25599619 99.98509316 -180.51235579 99.94335554 -166.76854324 99.86790943 C-160.38585006 99.83370328 -154.00339463 99.80853929 -147.62060547 99.80444336 C-141.45416978 99.80014687 -135.28826986 99.77157121 -129.12200165 99.72656822 C-126.77627439 99.71363651 -124.43048287 99.70927008 -122.08472443 99.71384621 C-104.84812761 100.00674983 -104.84812761 100.00674983 -89 94 C-87.96048187 93.4171801 -87.96048187 93.4171801 -86.89996338 92.82258606 C-78.02497796 87.58773014 -73.87681733 77.39879452 -71 68 C-70.34 68 -69.68 68 -69 68 C-69.06960938 66.92105469 -69.13921875 65.84210938 -69.2109375 64.73046875 C-69.94649279 48.08477743 -66.39428158 32.64830118 -55 20 C-54.37222656 19.27683594 -53.74445313 18.55367187 -53.09765625 17.80859375 C-42.03531528 5.88660256 -26.42017908 -1.26443763 -10.1875 -1.0625 Z " fill="#391962" transform="translate(445,586)"/>
<path d="M0 0 C10.46997335 8.03036791 17.43416045 17.38378307 21.19140625 30.03515625 C21.82530273 30.05497559 22.45919922 30.07479492 23.11230469 30.09521484 C46.09854028 30.85084664 65.92865466 32.72276841 84.19140625 48.03515625 C84.97902344 48.67324219 85.76664063 49.31132812 86.578125 49.96875 C94.22043297 56.41735282 100.66580407 63.58013221 104.19140625 73.03515625 C105.12455626 74.97475506 106.06267656 76.91196537 107.00390625 78.84765625 C109.85994366 84.97786062 112.00679373 91.21589797 114.0769043 97.64819336 C115.55365463 102.21202955 117.19984055 106.55656549 119.2578125 110.89453125 C120.86764134 114.58568692 122.01874401 118.4336239 123.2578125 122.26171875 C124.20175304 125.18834958 124.20175304 125.18834958 125.69140625 128.53515625 C128.20782548 134.40680113 130.06968483 140.51434645 132.0078125 146.59765625 C132.37712891 147.74234375 132.37712891 147.74234375 132.75390625 148.91015625 C132.96144531 149.56757813 133.16898438 150.225 133.3828125 150.90234375 C134.20211611 153.18257714 134.20211611 153.18257714 135.61328125 155.80859375 C137.36866816 159.39757787 138.6459814 162.99326048 139.87890625 166.78515625 C140.21631836 167.79255859 140.21631836 167.79255859 140.56054688 168.8203125 C142.19140625 173.76741784 142.19140625 173.76741784 142.19140625 176.03515625 C142.85140625 176.03515625 143.51140625 176.03515625 144.19140625 176.03515625 C145.453125 177.7578125 145.453125 177.7578125 146.87890625 180.09765625 C150.64539411 185.93617288 154.75411429 191.12572517 161.19140625 194.03515625 C161.19140625 196.01515625 161.19140625 197.99515625 161.19140625 200.03515625 C161.85140625 200.03515625 162.51140625 200.03515625 163.19140625 200.03515625 C163.52140625 199.37515625 163.85140625 198.71515625 164.19140625 198.03515625 C163.86140625 201.00515625 163.53140625 203.97515625 163.19140625 207.03515625 C162.86140625 207.03515625 162.53140625 207.03515625 162.19140625 207.03515625 C161.86140625 205.38515625 161.53140625 203.73515625 161.19140625 202.03515625 C160.53140625 202.03515625 159.87140625 202.03515625 159.19140625 202.03515625 C158.97484375 203.82953125 158.97484375 203.82953125 158.75390625 205.66015625 C158.32101282 209.13567205 157.79524369 212.58465659 157.19140625 216.03515625 C147.02538517 214.57772668 138.59189301 205.5261718 132.19140625 198.03515625 C124.4268558 187.60346426 118.73058472 176.5278029 115.0859375 164.0546875 C114.19714438 161.05452558 113.1705421 158.16641779 112.03515625 155.25390625 C110.88228869 152.22229156 109.82652111 149.15853279 108.75390625 146.09765625 C107.32921003 142.08026961 105.85911476 138.15218648 104.06640625 134.28515625 C102.28932082 130.44665171 101.12636098 126.56695333 99.97265625 122.50390625 C99.20369631 120.07399284 98.2648808 117.84475301 97.19140625 115.53515625 C95.7386068 112.40943623 94.63298104 109.35113703 93.69140625 106.03515625 C92.52061619 101.93422675 91.01660634 98.16951359 89.21484375 94.30859375 C88.15669892 91.95805829 87.27128387 89.5779657 86.37890625 87.16015625 C80.00049017 71.23883858 69.30864992 62.47475489 53.99511719 55.73657227 C47.83180111 53.33981982 40.84032647 53.71770498 34.31640625 53.47265625 C33.24648438 53.42947266 32.1765625 53.38628906 31.07421875 53.34179688 C28.44672871 53.23622808 25.81915203 53.13411834 23.19140625 53.03515625 C23.02125 54.51048828 23.02125 54.51048828 22.84765625 56.015625 C22.23789299 60.27860015 21.01735131 64.25995705 19.69140625 68.34765625 C19.46582031 69.06244141 19.24023438 69.77722656 19.0078125 70.51367188 C17.34970576 75.71855722 17.34970576 75.71855722 16.19140625 78.03515625 C15.53140625 78.03515625 14.87140625 78.03515625 14.19140625 78.03515625 C13.94519531 78.75960937 13.69898438 79.4840625 13.4453125 80.23046875 C8.56919074 91.13718347 -3.21885888 99.46424479 -13.9375 103.96875 C-30.25382219 110.02909824 -47.25704444 109.72833843 -63.1328125 102.52734375 C-76.73194741 95.03998394 -87.44898269 84.41418779 -92.30859375 69.59765625 C-92.54578125 68.87707031 -92.78296875 68.15648437 -93.02734375 67.4140625 C-93.28515625 66.62902344 -93.54296875 65.84398437 -93.80859375 65.03515625 C-94.16308594 64.184375 -94.51757812 63.33359375 -94.8828125 62.45703125 C-96.21410748 57.53629538 -96.13734895 52.79752858 -96.12109375 47.72265625 C-96.13720703 46.72814453 -96.15332031 45.73363281 -96.16992188 44.70898438 C-96.17417746 38.22772508 -95.20801853 33.03718669 -92.80859375 27.03515625 C-92.51597656 26.13925781 -92.22335938 25.24335938 -91.921875 24.3203125 C-86.9137492 10.41970967 -75.19727314 -0.45968159 -62.04345703 -6.70800781 C-40.91201133 -16.23284299 -18.93283644 -13.24508586 0 0 Z " fill="#391962" transform="translate(320.80859375,186.96484375)"/>
<path d="M0 0 C6.47609395 5.48878761 12.18794398 11.69867032 15.7734375 19.48828125 C15.7734375 20.80828125 15.7734375 22.12828125 15.7734375 23.48828125 C16.4334375 23.48828125 17.0934375 23.48828125 17.7734375 23.48828125 C18.26063963 24.83957772 18.73771934 26.19452441 19.2109375 27.55078125 C19.47777344 28.30488281 19.74460937 29.05898437 20.01953125 29.8359375 C24.44120093 45.39196712 21.8030712 59.963752 14.49609375 73.9296875 C5.46628789 89.91319427 -8.03435706 100.22163914 -25.6328125 105.1640625 C-43.12015075 107.34997978 -59.05131348 105.17677411 -73.55078125 94.640625 C-84.16980609 86.09889845 -94.1249161 74.11920096 -97.2265625 60.48828125 C-97.34399137 57.48363383 -97.31451728 54.49340278 -97.2265625 51.48828125 C-118.06234178 51.61344317 -134.15727018 52.97453554 -149.9765625 67.86328125 C-155.45798483 73.65497277 -159.32069316 79.73102784 -161.5859375 87.3828125 C-162.33540736 89.84600916 -163.37294094 92.14613484 -164.41796875 94.49609375 C-165.44180796 97.01859615 -166.26394826 99.58556855 -167.1015625 102.17578125 C-168.45071894 106.3104584 -169.94642142 110.30551579 -171.6640625 114.30078125 C-173.58604376 118.79715943 -175.22360392 123.33800604 -176.7265625 127.98828125 C-178.53555651 133.58492273 -180.64434608 138.97331919 -182.96875 144.375 C-184.89900179 149.15267292 -186.44835822 154.03840006 -188.015625 158.9453125 C-189.24807681 162.55122795 -190.71881167 165.98998273 -192.2265625 169.48828125 C-192.98097712 171.62536882 -193.71192702 173.77095168 -194.4140625 175.92578125 C-194.75824219 176.97636719 -195.10242188 178.02695312 -195.45703125 179.109375 C-195.71097656 179.89441406 -195.96492187 180.67945313 -196.2265625 181.48828125 C-196.8865625 181.48828125 -197.5465625 181.48828125 -198.2265625 181.48828125 C-198.46246094 182.34679687 -198.69835937 183.2053125 -198.94140625 184.08984375 C-200.36396743 187.85163167 -202.32222495 190.74045941 -204.7890625 193.86328125 C-205.23088867 194.42909912 -205.67271484 194.99491699 -206.12792969 195.57788086 C-211.5075832 202.30628762 -217.7703563 208.12367274 -225.2265625 212.48828125 C-225.8865625 212.48828125 -226.5465625 212.48828125 -227.2265625 212.48828125 C-229.14266405 205.84579589 -229.79023341 199.37768796 -230.2265625 192.48828125 C-231.2165625 192.15828125 -232.2065625 191.82828125 -233.2265625 191.48828125 C-232.64648438 191.01519531 -232.06640625 190.54210937 -231.46875 190.0546875 C-226.49193105 185.84163779 -222.74827262 181.79270401 -219.41796875 176.17578125 C-219.02480469 175.61890625 -218.63164063 175.06203125 -218.2265625 174.48828125 C-217.5665625 174.48828125 -216.9065625 174.48828125 -216.2265625 174.48828125 C-216.06800781 173.74964844 -215.90945313 173.01101563 -215.74609375 172.25 C-214.27488335 165.85307963 -212.32230159 160.23625709 -209.48046875 154.33203125 C-207.68028026 150.24936077 -206.51325436 146.03040848 -205.26171875 141.75390625 C-203.90856184 137.48507916 -202.15576398 133.44008955 -200.3828125 129.33203125 C-198.98664479 125.89821337 -197.98148095 122.42160912 -196.97265625 118.859375 C-195.9655267 115.65870674 -194.60123383 112.67673117 -193.19921875 109.6328125 C-190.97487224 104.72853043 -189.27361626 99.722775 -187.7890625 94.55078125 C-185.53166285 86.88965809 -181.99079314 79.91193485 -178.36328125 72.8203125 C-177.10721873 70.34664909 -177.10721873 70.34664909 -175.9765625 67.05078125 C-168.15499262 51.1282997 -152.04686497 39.49786529 -135.7265625 33.55078125 C-129.4378591 31.42329558 -124.04666939 30.36132043 -117.39453125 30.390625 C-116.10224609 30.39384766 -114.80996094 30.39707031 -113.47851562 30.40039062 C-112.12369724 30.4087446 -110.76887953 30.41720953 -109.4140625 30.42578125 C-108.03971515 30.43080125 -106.66536605 30.43536328 -105.29101562 30.43945312 C-101.93615326 30.45122457 -98.58138029 30.46766842 -95.2265625 30.48828125 C-95.1119165 29.89587646 -94.99727051 29.30347168 -94.87915039 28.69311523 C-92.23166227 15.81007312 -83.99342984 5.5064219 -73.4765625 -2.26171875 C-50.325608 -17.4680134 -22.03053561 -17.65770724 0 0 Z " fill="#391962" transform="translate(796.2265625,188.51171875)"/>
<path d="M0 0 C10.05036342 8.75733421 19.1671463 22.60875136 20.20068359 36.2019043 C20.30479394 39.26249451 20.32198073 42.31272573 20.3125 45.375 C20.32861328 46.40431641 20.34472656 47.43363281 20.36132812 48.49414062 C20.37171068 64.90896358 12.91748866 77.43354543 1.6796875 88.9375 C-9.87280292 100.25422531 -24.264877 105.39047032 -40.3125 105.875 C-56.9269188 105.54034938 -70.51786769 100.03338187 -82.28515625 88.45703125 C-92 78.09919065 -92 78.09919065 -92 73.5625 C-92.66 73.5625 -93.32 73.5625 -94 73.5625 C-94.67610423 71.67001181 -95.34050439 69.7733398 -96 67.875 C-96.37125 66.81925781 -96.7425 65.76351562 -97.125 64.67578125 C-98 61.5625 -98 61.5625 -98 56.5625 C-143.87 56.5625 -189.74 56.5625 -237 56.5625 C-237.33 55.5725 -237.66 54.5825 -238 53.5625 C-238.66 53.5625 -239.32 53.5625 -240 53.5625 C-239.87359131 54.23829102 -239.74718262 54.91408203 -239.61694336 55.61035156 C-239.04848102 58.67620401 -238.49286441 61.7442491 -237.9375 64.8125 C-237.73833984 65.87597656 -237.53917969 66.93945312 -237.33398438 68.03515625 C-237.15029297 69.05996094 -236.96660156 70.08476563 -236.77734375 71.140625 C-236.60452881 72.08325195 -236.43171387 73.02587891 -236.25366211 73.99707031 C-236.00476861 76.51427234 -236.21328873 78.18030887 -237 80.5625 C-238.77773025 72.72031407 -240.37167927 64.85901331 -241.75 56.9375 C-241.88962158 56.16809082 -242.02924316 55.39868164 -242.1730957 54.60595703 C-242.79681419 50.9223107 -243.07255945 48.13604605 -242 44.5625 C-241.34 45.5525 -240.68 46.5425 -240 47.5625 C-240.33 43.2725 -240.66 38.9825 -241 34.5625 C-193.81 34.5625 -146.62 34.5625 -98 34.5625 C-97.67 32.2525 -97.34 29.9425 -97 27.5625 C-94.57677575 14.82555271 -85.69255822 4.20756528 -75.40234375 -3.34375 C-51.28316774 -19.35535489 -22.7182153 -17.87207427 0 0 Z " fill="#391961" transform="translate(832,486.4375)"/>
<path d="M0 0 C5.97041468 4.73002382 11.1623984 10.00287679 15.9453125 15.921875 C16.6878125 16.829375 17.4303125 17.736875 18.1953125 18.671875 C21.52561008 24.85671337 23.9453125 31.87416347 23.9453125 38.921875 C25.07894509 38.92049231 25.07894509 38.92049231 26.23547935 38.91908169 C44.60396635 38.89702079 62.9724507 38.88046067 81.3409481 38.87006283 C90.22372284 38.86490118 99.10648874 38.85786096 107.98925781 38.84643555 C115.72926897 38.83648473 123.46927373 38.83002062 131.2092911 38.82778651 C135.30955269 38.82648008 139.40979599 38.82339849 143.51005173 38.81614494 C147.36606964 38.80937847 151.22206166 38.80725933 155.07808495 38.80876732 C156.49629672 38.80849127 157.91450933 38.80648986 159.33271599 38.80266953 C161.26317602 38.79772258 163.19364981 38.79947973 165.12411499 38.80162048 C166.20629995 38.80069869 167.28848492 38.7997769 168.40346336 38.79882717 C170.9453125 38.921875 170.9453125 38.921875 172.9453125 39.921875 C173.2753125 38.931875 173.6053125 37.941875 173.9453125 36.921875 C173.28482935 43.70051789 172.19839628 50.30418456 170.8828125 56.984375 C170.69654297 57.94537109 170.51027344 58.90636719 170.31835938 59.89648438 C169.86385688 62.23892031 169.40612348 64.58067344 168.9453125 66.921875 C167.98060797 63.4528365 167.99758341 60.76734653 168.3828125 57.171875 C168.48464844 56.18703125 168.58648437 55.2021875 168.69140625 54.1875 C168.77519531 53.43984375 168.85898437 52.6921875 168.9453125 51.921875 C168.2853125 51.921875 167.6253125 51.921875 166.9453125 51.921875 C166.6153125 54.561875 166.2853125 57.201875 165.9453125 59.921875 C119.4153125 60.251875 72.8853125 60.581875 24.9453125 60.921875 C24.2853125 63.891875 23.6253125 66.861875 22.9453125 69.921875 C21.85431495 72.50497213 20.77982529 74.85647245 19.4453125 77.296875 C19.09637939 77.93753906 18.74744629 78.57820312 18.38793945 79.23828125 C10.08888029 93.86243123 -3.51156151 104.02923999 -19.6640625 108.671875 C-37.31666147 112.43219194 -52.78050989 109.08992135 -68.0546875 99.921875 C-71.6722097 97.1661313 -74.89467997 94.18741154 -78.0546875 90.921875 C-78.61542969 90.35855469 -79.17617187 89.79523438 -79.75390625 89.21484375 C-92.14661772 75.84632823 -94.88772785 60.49408114 -94.40234375 42.89453125 C-94.07953704 36.73112143 -92.71560827 31.49240072 -90.0546875 25.921875 C-89.63058594 24.99375 -89.20648438 24.065625 -88.76953125 23.109375 C-81.71759442 8.96621478 -69.676329 -1.26777838 -55.0546875 -7.078125 C-36.54574981 -13.02486756 -16.23203998 -11.04276889 0 0 Z " fill="#391962" transform="translate(285.0546875,482.078125)"/>
<path d="M0 0 C1.65 0 3.3 0 5 0 C5.17128418 1.07894531 5.34256836 2.15789062 5.51904297 3.26953125 C6.160346 7.30314378 6.80630417 11.33599969 7.45361328 15.36865234 C7.73221197 17.1083607 8.00957699 18.8482671 8.28564453 20.58837891 C8.68451639 23.1011276 9.08793787 25.61311156 9.4921875 28.125 C9.6131076 28.89303955 9.73402771 29.6610791 9.85861206 30.45239258 C10.43396601 34.00197822 11.0876104 37.48294672 11.99072266 40.96459961 C13.14520522 45.41609637 13.91056624 49.90594267 14.65625 54.44140625 C14.80404907 55.32674545 14.95184814 56.21208466 15.10412598 57.12425232 C15.41489759 58.99053352 15.72407604 60.85708064 16.03173828 62.72387695 C16.49477653 65.53083508 16.96377794 68.33674739 17.43359375 71.14257812 C18.96142973 80.32295951 20.36611428 89.49578599 21.55273438 98.72680664 C22.20463293 103.49755118 23.07194411 108.21384053 24 112.9375 C24.2475 114.2378418 24.2475 114.2378418 24.5 115.56445312 C25.2499613 119.44608874 26.05646757 123.25975945 27.125 127.06640625 C28 131 28 131 28 140 C11.17 140 -5.66 140 -23 140 C-23 128.87566489 -23 128.87566489 -21.75 123.9296875 C-20.24669747 117.40655434 -19.10724274 110.8695306 -18.0625 104.2578125 C-17.89468018 103.19794128 -17.72686035 102.13807007 -17.55395508 101.04608154 C-17.0331009 97.73949723 -16.51611916 94.43232645 -16 91.125 C-12.12474021 66.37205077 -12.12474021 66.37205077 -9.78613281 54.24072266 C-8.76619216 48.84492355 -7.88491576 43.42583344 -6.9921875 38.0078125 C-6.81931213 36.95945221 -6.64643677 35.91109192 -6.46832275 34.83096313 C-5.75251019 30.48099017 -5.03924959 26.13060676 -4.32861328 21.77978516 C-3.80259633 18.56366172 -3.27264541 15.34820597 -2.7421875 12.1328125 C-2.58176971 11.14338654 -2.42135193 10.15396057 -2.256073 9.134552 C-2.10566559 8.22535004 -1.95525818 7.31614807 -1.80029297 6.37939453 C-1.66944305 5.57938019 -1.53859314 4.77936584 -1.40377808 3.95510864 C-1 2 -1 2 0 0 Z " fill="#060817" transform="translate(520,432)"/>
<path d="M0 0 C0.33 0 0.66 0 1 0 C1 1.98 1 3.96 1 6 C12.55 6 24.1 6 36 6 C36 4.68 36 3.36 36 2 C36.66 2 37.32 2 38 2 C40.9296875 13.71875 40.9296875 13.71875 41.45996094 15.875 C41.81087558 17.25581421 42.18285303 18.63150591 42.57910156 20 C44.10849163 25.43783135 44 28.94703835 44 35 C27.17 35 10.34 35 -7 35 C-7 27.97654453 -6.76950685 22.44542326 -5.1875 15.8125 C-5.02185547 15.05775391 -4.85621094 14.30300781 -4.68554688 13.52539062 C-3.58751728 8.73963899 -2.06017457 4.45682465 0 0 Z " fill="#060818" transform="translate(504,537)"/>
<path d="M0 0 C2.32280345 2.32280345 2.41033454 3.2272384 2.9296875 6.39526367 C3.08324707 7.30769333 3.23680664 8.22012299 3.39501953 9.16020203 C3.63260986 10.64904655 3.63260986 10.64904655 3.875 12.16796875 C4.04499512 13.19497391 4.21499023 14.22197906 4.39013672 15.28010559 C4.75019219 17.4643574 5.10636093 19.64925286 5.45898438 21.8347168 C5.99073811 25.13010217 6.53325573 28.42355745 7.078125 31.71679688 C8.73035552 41.76306438 10.3238375 51.80638982 11.60546875 61.9074707 C12.03534411 65.27704444 12.51298239 68.6382551 13 72 C12.67 71.34 12.34 70.68 12 70 C11.34 70 10.68 70 10 70 C10 71.32 10 72.64 10 74 C-1.55 74 -13.1 74 -25 74 C-25.495 71.525 -25.495 71.525 -26 69 C-26.66 70.98 -27.32 72.96 -28 75 C-29.01437897 71.81874454 -28.93906946 69.69132145 -28.25 66.44140625 C-27.22643839 61.27637011 -26.36550359 56.10501764 -25.5625 50.90234375 C-25.30501753 49.2610159 -25.04720047 47.61974051 -24.7890625 45.97851562 C-24.39015745 43.43784678 -23.99378241 40.89689762 -23.60449219 38.35473633 C-23.22296584 35.86937147 -22.83118504 33.3858076 -22.4375 30.90234375 C-22.322854 30.13784409 -22.20820801 29.37334442 -22.09008789 28.5856781 C-21.2274513 23.2274513 -21.2274513 23.2274513 -19 21 C-20.37380565 32.71775411 -22.10155293 44.35619131 -24 56 C-23.34 56 -22.68 56 -22 56 C-22 55.01 -22 54.02 -22 53 C-12.43 53 -2.86 53 7 53 C6.16063649 41.91557526 6.16063649 41.91557526 4.58984375 30.99609375 C4.45808243 30.22491714 4.32632111 29.45374054 4.19056702 28.65919495 C3.77845858 26.25096061 3.35863697 23.84417038 2.9375 21.4375 C2.51376438 18.99854817 2.09180745 16.55932687 1.67372131 14.11940002 C1.41569644 12.61516377 1.15434256 11.11149352 0.8891449 9.60850525 C0.32383515 6.32737101 0 3.34457617 0 0 Z " fill="#391962" transform="translate(530,469)"/>
<path d="M0 0 C1.65 0 3.3 0 5 0 C5.72093505 3.9820157 6.43263662 7.96556631 7.13623047 11.95068359 C7.37627912 13.30301138 7.61874186 14.65491315 7.86376953 16.00634766 C10.36606418 29.82514216 10.36606418 29.82514216 10 37 C9.34 37 8.68 37 8 37 C8.33 40.63 8.66 44.26 9 48 C4.05 48 -0.9 48 -6 48 C-6.66 51.3 -7.32 54.6 -8 58 C-8.33 58 -8.66 58 -9 58 C-9.214114 51.40880044 -8.39771361 45.27833392 -7.28515625 38.7890625 C-7.10995956 37.73971527 -6.93476288 36.69036804 -6.7542572 35.60922241 C-6.38490583 33.40514163 -6.01242024 31.20158402 -5.63696289 28.99853516 C-5.06098981 25.61613143 -4.49554954 22.23209005 -3.93164062 18.84765625 C-3.57092687 16.70302158 -3.20961977 14.5584866 -2.84765625 12.4140625 C-2.6778273 11.3995401 -2.50799835 10.3850177 -2.33302307 9.3397522 C-2.17293259 8.4047287 -2.0128421 7.4697052 -1.84790039 6.50634766 C-1.70800186 5.68220367 -1.56810333 4.85805969 -1.42396545 4.00894165 C-1 2 -1 2 0 0 Z " fill="#151130" transform="translate(520,432)"/>
<path d="M0 0 C2.32280345 2.32280345 2.41033454 3.2272384 2.9296875 6.39526367 C3.08324707 7.30769333 3.23680664 8.22012299 3.39501953 9.16020203 C3.63260986 10.64904655 3.63260986 10.64904655 3.875 12.16796875 C4.04499512 13.19497391 4.21499023 14.22197906 4.39013672 15.28010559 C4.75019219 17.4643574 5.10636093 19.64925286 5.45898438 21.8347168 C5.99073811 25.13010217 6.53325573 28.42355745 7.078125 31.71679688 C8.73035552 41.76306438 10.3238375 51.80638982 11.60546875 61.9074707 C12.03534411 65.27704444 12.51298239 68.6382551 13 72 C12.67 71.34 12.34 70.68 12 70 C11.34 70 10.68 70 10 70 C10 71.32 10 72.64 10 74 C-1.55 74 -13.1 74 -25 74 C-25.495 71.525 -25.495 71.525 -26 69 C-26.66 70.98 -27.32 72.96 -28 75 C-29.01437897 71.81874454 -28.93906946 69.69132145 -28.25 66.44140625 C-27.22643839 61.27637011 -26.36550359 56.10501764 -25.5625 50.90234375 C-25.30501753 49.2610159 -25.04720047 47.61974051 -24.7890625 45.97851562 C-24.39015745 43.43784678 -23.99378241 40.89689762 -23.60449219 38.35473633 C-23.22296584 35.86937147 -22.83118504 33.3858076 -22.4375 30.90234375 C-22.322854 30.13784409 -22.20820801 29.37334442 -22.09008789 28.5856781 C-21.2274513 23.2274513 -21.2274513 23.2274513 -19 21 C-20.37380565 32.71775411 -22.10155293 44.35619131 -24 56 C-23.34 56 -22.68 56 -22 56 C-21.67 55.01 -21.34 54.02 -21 53 C-21.11694237 54.64642547 -21.24409233 56.29212602 -21.375 57.9375 C-21.44460938 58.85402344 -21.51421875 59.77054688 -21.5859375 60.71484375 C-22.10782115 64.8554489 -23.09467007 68.92601531 -24 73 C-13.11 73 -2.22 73 9 73 C8.01 68.38 7.02 63.76 6 59 C6 57.02 6 55.04 6 53 C6.33 53 6.66 53 7 53 C6.45833238 42.31545734 4.77867639 31.95926592 2.9375 21.4375 C2.51376438 18.99854817 2.09180745 16.55932687 1.67372131 14.11940002 C1.41569644 12.61516377 1.15434256 11.11149352 0.8891449 9.60850525 C0.32383515 6.32737101 0 3.34457617 0 0 Z " fill="#30205B" transform="translate(530,469)"/>
<path d="M0 0 C1.09921171 3.36864747 0.89463706 5.84538269 0.29296875 9.31640625 C0.11830078 10.32767578 -0.05636719 11.33894531 -0.23632812 12.38085938 C-0.42646484 13.43080078 -0.61660156 14.48074219 -0.8125 15.5625 C-0.99103516 16.61630859 -1.16957031 17.67011719 -1.35351562 18.75585938 C-2.7425844 26.6138766 -2.7425844 26.6138766 -5 30 C-4.67 25.05 -4.34 20.1 -4 15 C-4.33 15 -4.66 15 -5 15 C-5.02712066 13.56260487 -5.04645067 12.12506137 -5.0625 10.6875 C-5.07410156 9.88699219 -5.08570313 9.08648438 -5.09765625 8.26171875 C-5 6 -5 6 -4 3 C-51.52 3 -99.04 3 -148 3 C-148 2.67 -148 2.34 -148 2 C-128.99850809 1.97666479 -109.99701908 1.95901776 -90.99551582 1.94818783 C-82.17327521 1.9430262 -73.3510435 1.93598602 -64.52880859 1.92456055 C-56.84153515 1.91460966 -49.15426815 1.9081456 -41.46698844 1.90591151 C-37.39467248 1.90460509 -33.32237493 1.90152357 -29.25006485 1.89426994 C-25.42031171 1.88750336 -21.59058466 1.88538435 -17.76082611 1.88689232 C-16.35228967 1.88661628 -14.94375239 1.88461492 -13.5352211 1.88079453 C-11.6178983 1.87584742 -9.70056163 1.87760477 -7.78323364 1.87974548 C-6.70842302 1.87882369 -5.6336124 1.8779019 -4.52623177 1.87695217 C-2 2 -2 2 0 3 C0 2.01 0 1.02 0 0 Z " fill="#211341" transform="translate(458,519)"/>
<path d="M0 0 C1.98 0 3.96 0 6 0 C6.50604924 2.39469729 7.00499517 4.79051717 7.5 7.1875 C7.64308594 7.86103516 7.78617188 8.53457031 7.93359375 9.22851562 C8.69971814 12.96793227 9 16.14087274 9 20 C5.37 20 1.74 20 -2 20 C-2.26404456 13.13484138 -1.25841946 6.74153283 0 0 Z " fill="#381960" transform="translate(519,459)"/>
<path d="M0 0 C-0.52405563 6.69007182 -1.10463925 13.3487487 -2 20 C1.63 20 5.26 20 9 20 C9.33 19.01 9.66 18.02 10 17 C10 18.32 10 19.64 10 21 C4.72 21 -0.56 21 -6 21 C-5.55252374 17.68569253 -5.09260777 14.3739723 -4.625 11.0625 C-4.49867188 10.11697266 -4.37234375 9.17144531 -4.2421875 8.19726562 C-4.11328125 7.29814453 -3.984375 6.39902344 -3.8515625 5.47265625 C-3.67874756 4.22367554 -3.67874756 4.22367554 -3.50244141 2.94946289 C-3.33663574 2.30614014 -3.17083008 1.66281738 -3 1 C-1 0 -1 0 0 0 Z " fill="#0F0B25" transform="translate(519,459)"/>
<path d="M0 0 C2.02350324 3.03525486 2.32124018 4.19426202 2.625 7.6875 C2.69976563 8.49574219 2.77453125 9.30398438 2.8515625 10.13671875 C2.92503906 11.05904297 2.92503906 11.05904297 3 12 C2.67 11.34 2.34 10.68 2 10 C1.34 10 0.68 10 0 10 C0.12640869 10.67579102 0.25281738 11.35158203 0.38305664 12.04785156 C0.95151898 15.11370401 1.50713559 18.1817491 2.0625 21.25 C2.26166016 22.31347656 2.46082031 23.37695312 2.66601562 24.47265625 C2.84970703 25.49746094 3.03339844 26.52226563 3.22265625 27.578125 C3.39547119 28.52075195 3.56828613 29.46337891 3.74633789 30.43457031 C3.99523139 32.95177234 3.78671127 34.61780887 3 37 C1.22226975 29.15781407 -0.37167927 21.29651331 -1.75 13.375 C-1.88962158 12.60559082 -2.02924316 11.83618164 -2.1730957 11.04345703 C-2.79681419 7.3598107 -3.07255945 4.57354605 -2 1 C-1.34 1.99 -0.68 2.98 0 4 C0 2.68 0 1.36 0 0 Z " fill="#291C50" transform="translate(592,530)"/>
<path d="M0 0 C0.58051881 8.94428987 -1.18625975 17.29836524 -3 26 C-4.09651823 22.58860997 -3.94215473 19.79344419 -3.5625 16.25 C-3.46066406 15.26515625 -3.35882813 14.2803125 -3.25390625 13.265625 C-3.17011719 12.51796875 -3.08632813 11.7703125 -3 11 C-3.66 11.66 -4.32 12.32 -5 13 C-3.73303167 3.76923077 -3.73303167 3.76923077 -3 1 C-1 0 -1 0 0 0 Z " fill="#2A1D53" transform="translate(468,466)"/>
<path d="M0 0 C0.33 0 0.66 0 1 0 C2.59162079 5.57067277 3.20674944 10.21101581 3 16 C2.67 16 2.34 16 2 16 C1.67 17.65 1.34 19.3 1 21 C0.67 21 0.34 21 0 21 C-0.66 15.39 -1.32 9.78 -2 4 C-1.34 4 -0.68 4 0 4 C0 2.68 0 1.36 0 0 Z " fill="#130F2D" transform="translate(602,585)"/>
<path d="M0 0 C2 3 2 3 3 6 C3.33 4.02 3.66 2.04 4 0 C4.33 0 4.66 0 5 0 C5.36463732 1.74784829 5.7163078 3.49840502 6.0625 5.25 C6.25972656 6.22453125 6.45695313 7.1990625 6.66015625 8.203125 C6.98397535 10.868119 6.85503199 12.48871723 6 15 C6 14.34 6 13.68 6 13 C5.34 13 4.68 13 4 13 C4 14.65 4 16.3 4 18 C3.67 18 3.34 18 3 18 C2.49490792 15.75113762 1.99610821 13.50086131 1.5 11.25 C1.2215625 9.99703125 0.943125 8.7440625 0.65625 7.453125 C0 4 0 4 0 0 Z " fill="#1F1641" transform="translate(576,462)"/>
<path d="M0 0 C0.02725341 1.7290774 0.04650987 3.45828176 0.0625 5.1875 C0.07410156 6.15042969 0.08570313 7.11335937 0.09765625 8.10546875 C0.00486622 10.85576513 -0.37888315 13.32479591 -1 16 C-1.66 14.68 -2.32 13.36 -3 12 C-3.99 12.495 -3.99 12.495 -5 13 C-4.19444444 0 -4.19444444 0 0 0 Z " fill="#161031" transform="translate(444,590)"/>
<path d="M0 0 C0.02725341 1.7290774 0.04650987 3.45828176 0.0625 5.1875 C0.07410156 6.15042969 0.08570313 7.11335938 0.09765625 8.10546875 C0.00486622 10.85576513 -0.37888315 13.32479591 -1 16 C-1.66 14.68 -2.32 13.36 -3 12 C-3.99 12.495 -3.99 12.495 -5 13 C-3.73303167 3.76923077 -3.73303167 3.76923077 -3 1 C-1 0 -1 0 0 0 Z " fill="#100E28" transform="translate(483,388)"/>
<path d="M0 0 C1.9375 0.3125 1.9375 0.3125 4 1 C4.96070434 3.88211302 5.10581883 5.69850044 5.0625 8.6875 C5.05347656 9.49574219 5.04445313 10.30398438 5.03515625 11.13671875 C5.02355469 11.75160156 5.01195312 12.36648438 5 13 C4.34 13 3.68 13 3 13 C3 14.65 3 16.3 3 18 C2.67 18 2.34 18 2 18 C1.63447197 16.58622218 1.28304505 15.16879424 0.9375 13.75 C0.74027344 12.96109375 0.54304687 12.1721875 0.33984375 11.359375 C-0.01497267 8.89605178 0.23122456 7.34395868 1 5 C1.33 5.33 1.66 5.66 2 6 C2.33 4.68 2.66 3.36 3 2 C2.01 2 1.02 2 0 2 C0 1.34 0 0.68 0 0 Z " fill="#1C143B" transform="translate(562,380)"/>
<path d="M0 0 C2.60018816 3.90028225 2.15085514 7.47434569 2 12 C1.34 12 0.68 12 0 12 C0 13.65 0 15.3 0 17 C-2.26954631 13.59568053 -2.36549949 11.83475798 -2.625 7.8125 C-2.69976563 6.72582031 -2.77453125 5.63914062 -2.8515625 4.51953125 C-2.90054688 3.68808594 -2.94953125 2.85664063 -3 2 C-2.01 3.485 -2.01 3.485 -1 5 C-0.67 3.35 -0.34 1.7 0 0 Z " fill="#1B1238" transform="translate(528,457)"/>
<path d="M0 0 C2.13586678 3.20380017 2.23132175 4.01939967 2.125 7.6875 C2.10695313 8.49574219 2.08890625 9.30398438 2.0703125 10.13671875 C2.03550781 11.05904297 2.03550781 11.05904297 2 12 C1.01 12.33 0.02 12.66 -1 13 C-1.33 9.04 -1.66 5.08 -2 1 C-1.34 0.67 -0.68 0.34 0 0 Z " fill="#100C27" transform="translate(538,521)"/>
<path d="M0 0 C1.13732426 3.40401948 0.83989957 5.77456664 0.0625 9.25 C-0.13214844 10.14203125 -0.32679688 11.0340625 -0.52734375 11.953125 C-0.68332031 12.62859375 -0.83929688 13.3040625 -1 14 C-3.97921225 10.59956236 -3.97921225 10.59956236 -4.07421875 7.859375 C-3.53710938 4.9296875 -3.53710938 4.9296875 -3 2 C-2.01 2.33 -1.02 2.66 0 3 C0 2.01 0 1.02 0 0 Z " fill="#130D2A" transform="translate(508,522)"/>
<path d="M0 0 C0.66 0.33 1.32 0.66 2 1 C-1.63 4.63 -5.26 8.26 -9 12 C-9 8.00102358 -7.64683965 6.93298448 -5 4 C-3.36643049 2.62631655 -1.7074998 1.28062485 0 0 Z " fill="#0D0A22" transform="translate(413,613)"/>
<path d="M0 0 C-0.33 2.97 -0.66 5.94 -1 9 C-1.66 9 -2.32 9 -3 9 C-3 6.36 -3 3.72 -3 1 C-1 0 -1 0 0 0 Z " fill="#09091C" transform="translate(468,466)"/>
<path d="M0 0 C0.25 2.25 0.25 2.25 0 5 C-2 7.3125 -2 7.3125 -4 9 C-3.4140625 2.84765625 -3.4140625 2.84765625 -3 1 C-1 0 -1 0 0 0 Z " fill="#0E0B24" transform="translate(455,533)"/>
<path d="M0 0 C0.33 0 0.66 0 1 0 C1.125 6.75 1.125 6.75 0 9 C-0.66 9 -1.32 9 -2 9 C-2.25 3.375 -2.25 3.375 0 0 Z " fill="#080A1C" transform="translate(456,523)"/>
<path d="M0 0 C0.99 0.33 1.98 0.66 3 1 C3 2.65 3 4.3 3 6 C2.01 6.33 1.02 6.66 0 7 C0 4.69 0 2.38 0 0 Z " fill="#0B0A20" transform="translate(603,600)"/>
<path d="M0 0 C0.33 1.32 0.66 2.64 1 4 C1.66 4 2.32 4 3 4 C3 5.98 3 7.96 3 10 C2.34 8.68 1.68 7.36 1 6 C0.01 6.495 0.01 6.495 -1 7 C-0.67 4.69 -0.34 2.38 0 0 Z " fill="#1D133D" transform="translate(479,394)"/>
</svg>
